# xmcd
#
# Track frame offsets: 
#        150
#        15155
#        28710
#        41345
#        55190
#        64712
#        77392
#        92667
#        104847
#        117575
#        129900
#        143680
#        163482
#        175800
#
# Disc length: 2477 seconds
#
# Revision: 0
# Processed by: cddbd v1.5.2PL0 Copyright (c) Steve Scherf et al.
# Submitted via: ExactAudioCopy v0.99pb5
#
DISCID=b109ab0e
DTITLE=鄧麗君 - 黃金珍藏 - cd05
DYEAR=1900
DGENRE=Pop
TTITLE0=難忘的初戀情人
TTITLE1=我沒有騙你
TTITLE2=雲河
TTITLE3=想你想斷腸
TTITLE4=路邊的野花不要採
TTITLE5=南海姑娘
TTITLE6=雲深情也深
TTITLE7=水長流
TTITLE8=後悔愛上你
TTITLE9=獨上西樓
TTITLE10=胭脂淚\
TTITLE11=問自己
TTITLE12=人約黃昏後
TTITLE13=春風滿小城
EXTD=
EXTT0=
EXTT1=
EXTT2=
EXTT3=
EXTT4=
EXTT5=
EXTT6=
EXTT7=
EXTT8=
EXTT9=
EXTT10=
EXTT11=
EXTT12=
EXTT13=
PLAYORDER=
